<?xml version="1.0" encoding="UTF-8"?>
<svg id="Calque_1" data-name="Calque 1" xmlns="http://www.w3.org/2000/svg" viewBox="0 0 660 102">
  <defs>
    <style>
      .cls-1 {
        isolation: isolate;
      }
    </style>
  </defs>
  <g class="cls-1">
    <path d="M28.18,80.03c-4.23,1.8-8.91,2.7-14.4,2.7-7.65,0-9.36-3.87-7.83-6.75,1.26-2.52,4.86-3.6,7.74-3.6,4.95,0,9.81,1.44,14.67,3.15,7.02-4.14,11.97-9.27,17.55-18.09-1.26.18-2.61.27-3.87.27-13.86-.09-23.67-12.24-17.19-25.02,1.62-3.15,4.05-6.12,7.83-8.37,1.53,2.52,4.95,6.39,8.19,8.1-3.6.9-5.85,2.79-7.11,5.31-2.88,5.67-1.71,15.3,10.53,15.3,1.53,0,3.06-.18,4.68-.54,2.34-4.14,4.95-8.91,7.92-14.49C70.21,12.71,77.05,3.89,83.89,3.89c6.03,0,7.74,7.74.27,22.5-6.21,12.24-19.26,25.02-32.49,29.61-5.76,9.45-11.43,16.74-18.45,21.33,5.4,1.98,10.71,3.78,15.93,3.78,4.77,0,7.83-2.52,7.11-7.29,7.74,2.88,10.98,10.8,7.92,16.74-1.8,3.51-5.58,5.94-10.71,5.94-11.61,0-18.54-11.7-25.29-16.47ZM79.12,26.93c3.96-7.74,3.69-13.14.81-13.14-3.42,0-6.84,3.6-18.99,25.83-1.98,3.69-3.96,7.29-5.85,10.62,10.35-5.04,20.25-15.75,24.03-23.31Z"/>
  </g>
  <g class="cls-1">
    <path d="M71.13,71.98l11.09-21.75h6.91l-11.45,22.54c-1.08,2.16-.79,3.67.72,3.67,2.52,0,5.47-2.3,13.61-12.1l.36-.43,1.8,1.44-.36.43c-9.14,10.94-13.97,16.49-20.02,16.49-2.95,0-4.39-1.8-4.39-4.54,0-1.58.65-3.67,1.73-5.76ZM91.07,34.25c2.52,0,4.32,1.94,4.32,4.46,0,2.88-2.3,5.18-5.33,5.18-2.52,0-4.32-1.94-4.32-4.46,0-2.88,2.3-5.18,5.33-5.18Z"/>
    <path d="M93.81,73.86c2.66,0,4.61,2.45,5.54,4.54.94-1.22,2.02-3.53,2.02-7.2,0-3.17-.43-6.98-.43-10.01,0-1.51.07-2.95.43-4.46-2.3,2.81-4.61,5.47-7.2,8.64l-.36.43-1.73-1.44.36-.43c3.96-4.75,8.28-9.87,12.1-14.76h4.46c.36,0,.5.14.5.36,0,.14-.07.29-.14.43-1.08,1.73-1.94,4.03-1.94,6.91,0,3.1.94,7.13.94,11.67,0,3.1-.58,6.12-2.52,8.71,4.82-3.31,8.57-7.99,12.67-12.89l.36-.43,1.73,1.44-.36.43c-10.8,12.96-17.35,17.5-24.48,17.5-5.47,0-7.56-4.25-5.9-7.27.58-1.22,2.09-2.16,3.96-2.16Z"/>
    <path d="M136.86,49.16c3.82,0,5.98,3.17,5.9,7.2l3.74-6.12h6.05l-11.52,22.54c-1.08,2.16-.79,3.67.72,3.67,2.52,0,5.47-2.3,13.61-12.1l.36-.43,1.8,1.44-.36.43c-9.15,10.94-13.97,16.49-19.44,16.49-2.88,0-4.68-1.44-4.68-4.39,0-.72.07-1.44.29-2.23-3.6,4.25-7.42,6.62-11.45,6.62-7.56,0-8.86-8.71-4.1-17.86,4.46-8.71,12.17-15.27,19.08-15.27ZM126.35,76.81c3.96,0,9.15-6.05,11.52-10.66,3.24-6.26,3.53-13.68-.43-13.68-3.17,0-7.85,4.03-11.67,11.45-3.67,7.13-3.24,12.89.58,12.89Z"/>
    <path d="M179.34,62.84l-2.88,5.76h-18.94l2.81-5.76h19.01Z"/>
  </g>
  <g class="cls-1">
    <path d="M201.79,57.8c-2.43,1.26-4.5,2.88-5.76,5.4-2.52,4.86-.36,11.88,7.74,11.88,11.16,0,21.78-9.72,35.55-27.18,8.55-10.62,15.75-19.62,23.85-26.64-9.09,5.04-19.08,10.71-28.08,10.71-5.58,0-9.18-1.53-11.7-4.05,2.7-3.42,5.22-7.74,6.84-11.61,1.62,3.42,6.21,6.03,14.67,6.03,14.67,0,28.53-9.27,38.07-15.48.18.99.99,2.16,1.53,2.79-19.53,12.33-24.21,33.93-25.2,47.88,11.61-21.87,37.8-41.58,57.24-50.67.45,1.35,1.17,2.25,1.62,2.7-7.92,4.5-22.14,18.45-30.24,34.38-8.19,15.93-9.27,30.06-3.24,30.06,5.04,0,11.7-6.57,17.82-13.86l.45-.54,2.16,1.8-.45.54c-12.96,15.57-19.44,20.61-25.92,20.61-10.35,0-10.8-12.69-1.53-30.96,5.85-11.43,15.39-23.4,22.68-30.96-21.51,14.4-36.36,31.77-47.7,60.57h-10.62c8.91-17.37,11.07-43.74,28.35-62.19-10.44,8.73-19.53,22.23-27.72,34.29-13.86,20.25-28.62,36.36-43.92,36.36s-18.81-11.79-14.13-21.24c3.42-6.84,11.88-10.53,17.64-10.62Z"/>
  </g>
  <g class="cls-1">
    <path d="M320.46,49.16c3.82,0,5.98,3.17,5.9,7.2l3.74-6.12h6.05l-11.52,22.54c-1.08,2.16-.79,3.67.72,3.67,2.52,0,5.47-2.3,13.61-12.1l.36-.43,1.8,1.44-.36.43c-9.15,10.94-13.97,16.49-19.44,16.49-2.88,0-4.68-1.44-4.68-4.39,0-.72.07-1.44.29-2.23-3.6,4.25-7.42,6.62-11.45,6.62-7.56,0-8.86-8.71-4.1-17.86,4.46-8.71,12.17-15.27,19.08-15.27ZM309.94,76.81c3.96,0,9.15-6.05,11.52-10.66,3.24-6.26,3.53-13.68-.43-13.68-3.17,0-7.85,4.03-11.67,11.45-3.67,7.13-3.24,12.89.58,12.89Z"/>
    <path d="M349.25,82.28c-5.76,0-7.56-6.12-3.53-13.83,1.8-3.53,6.12-9.36,11.81-14.04l-.14-.29c-2.52,1.01-5.33,1.51-7.7,1.51-.58,0-1.15-.07-1.66-.14-2.38,4.18-5.04,7.63-6.91,9.86l-.36.43-1.73-1.44.36-.43c2.88-3.46,4.75-6.12,6.26-9.29-3.24-1.94-3.74-6.34-1.94-9.79.86-1.66,2.45-2.81,3.96-2.81,2.95,0,4.82,3.53,2.09,10.01.43.07.86.14,1.44.14,3.67,0,8.64-2.02,10.66-3.6.5,1.3,1.51,3.02,2.23,3.82-3.46,2.81-7.92,7.06-10.94,12.82-3.17,6.19-2.95,10.87.86,10.87,3.1,0,6.91-3.46,13.83-11.74l.36-.43,1.73,1.44-.36.43c-9.36,11.23-13.75,16.49-20.31,16.49Z"/>
    <path d="M364.01,71.98l11.09-21.75h6.91l-11.45,22.54c-1.08,2.16-.79,3.67.72,3.67,2.52,0,5.47-2.3,13.61-12.1l.36-.43,1.8,1.44-.36.43c-9.14,10.94-13.97,16.49-20.02,16.49-2.95,0-4.39-1.8-4.39-4.54,0-1.58.65-3.67,1.73-5.76ZM383.96,34.25c2.52,0,4.32,1.94,4.32,4.46,0,2.88-2.3,5.18-5.33,5.18-2.52,0-4.32-1.94-4.32-4.46,0-2.88,2.3-5.18,5.33-5.18Z"/>
    <path d="M401.74,49.16c5.76,0,9.43,4.46,6.48,10.15-2.23,4.39-9.15,7.49-16.78,7.49h-1.51c-.72,5.11.94,9.5,5.98,9.5s10.58-4.54,16.78-11.95l.36-.43,1.8,1.44-.36.43c-8.21,9.79-14.54,16.56-22.97,16.56-8.93,0-11.59-9.72-6.26-20.31,3.67-7.13,9.87-12.89,16.49-12.89ZM391.73,64.42c5.4,0,10.08-3.24,11.59-6.19,1.8-3.53.65-6.34-2.23-6.34s-6.62,3.53-9,8.28c-.72,1.37-1.22,2.81-1.66,4.18.5.07.94.07,1.3.07Z"/>
  </g>
  <g class="cls-1">
    <path d="M425.84,68.42c3.15-6.3,10.89-10.44,17.64-10.62-2.43,1.26-4.59,2.88-5.85,5.4-2.43,4.95-.18,11.61,7.2,11.61,10.89,0,20.07-9.09,34.74-28.89-3.06,0-6.66-2.25-5.22-5.04.63-1.26,2.7-2.43,5.31-2.43,1.71,0,3.42.18,4.95.54.9-1.17,1.89-2.43,2.79-3.78,4.5-6.3,11.52-16.56,18.63-23.31-10.17,6.21-20.07,18.63-32.22,18.63-4.5,0-8.46-1.98-11.16-5.22,1.98-2.97,4.95-8.19,6.48-11.88,1.71,5.04,5.49,7.11,11.25,7.11,11.07,0,19.62-11.25,32.85-14.22.18.9.72,1.8,1.26,2.52-6.57,3.6-17.37,19.53-22.95,29.16l-1.08,1.89c7.74-2.7,14.13-8.46,22.05-16.83,11.16-11.88,21.96-19.8,32.4-23.04.36,3.6,1.98,6.3,3.42,8.55-14.13,1.35-30.24,17.46-39.87,24.48-4.59,3.24-10.53,7.2-16.56,9.9,3.24,3.15,5.22,8.1,5.13,14.67-.36,10.89.81,14.76,4.95,14.76,4.41,0,8.73-3.87,15.66-12.24l.45-.54,2.16,1.8-.45.54c-12.96,15.57-19.89,20.61-25.29,20.61-5.94,0-8.64-4.68-8.64-9.63,0-7.11,4.5-15.66,4.5-22.23,0-2.43-.54-4.59-2.61-6.21h-.09c-17.46,28.98-31.5,45.18-47.79,45.18-14.04,0-18.99-11.34-14.04-21.24Z"/>
  </g>
  <g class="cls-1">
    <path d="M527.47,82.28c-5.76,0-7.56-6.12-3.53-13.83,1.8-3.53,6.12-9.36,11.81-14.04l-.14-.29c-2.52,1.01-5.33,1.51-7.7,1.51-.58,0-1.15-.07-1.66-.14-2.38,4.18-5.04,7.63-6.91,9.86l-.36.43-1.73-1.44.36-.43c2.88-3.46,4.75-6.12,6.26-9.29-3.24-1.94-3.74-6.34-1.94-9.79.86-1.66,2.45-2.81,3.96-2.81,2.95,0,4.82,3.53,2.09,10.01.43.07.86.14,1.44.14,3.67,0,8.64-2.02,10.66-3.6.5,1.3,1.51,3.02,2.23,3.82-3.46,2.81-7.92,7.06-10.94,12.82-3.17,6.19-2.95,10.87.86,10.87,3.1,0,6.91-3.46,13.83-11.74l.36-.43,1.73,1.44-.36.43c-9.36,11.23-13.75,16.49-20.31,16.49Z"/>
    <path d="M562.82,49.16c5.76,0,9.43,4.46,6.48,10.15-2.23,4.39-9.14,7.49-16.78,7.49h-1.51c-.72,5.11.94,9.5,5.98,9.5s10.58-4.54,16.78-11.95l.36-.43,1.8,1.44-.36.43c-8.21,9.79-14.54,16.56-22.97,16.56-8.93,0-11.59-9.72-6.26-20.31,3.67-7.13,9.86-12.89,16.49-12.89ZM552.81,64.42c5.4,0,10.08-3.24,11.59-6.19,1.8-3.53.65-6.34-2.23-6.34s-6.62,3.53-9,8.28c-.72,1.37-1.22,2.81-1.66,4.18.5.07.94.07,1.3.07Z"/>
    <path d="M570.02,71.98l11.09-21.75h6.91l-11.45,22.54c-1.08,2.16-.79,3.67.72,3.67,2.52,0,5.47-2.3,13.61-12.1l.36-.43,1.8,1.44-.36.43c-9.14,10.94-13.97,16.49-20.02,16.49-2.95,0-4.39-1.8-4.39-4.54,0-1.58.65-3.67,1.73-5.76ZM589.96,34.25c2.52,0,4.32,1.94,4.32,4.46,0,2.88-2.3,5.18-5.33,5.18-2.52,0-4.32-1.94-4.32-4.46,0-2.88,2.3-5.18,5.33-5.18Z"/>
    <path d="M603.5,72.34c2.23-4.39,5.4-9.15,7.49-13.25,1.51-3.02,1.01-5.18-1.51-5.18-4.46,0-8.86,5.4-12.96,13.32l-7.13,13.97h-6.91l15.77-30.96h6.05l-3.02,6.41c3.75-4.39,8.07-7.49,13.03-7.49,3.24,0,5.11,1.87,5.11,4.54,0,1.66-.58,3.46-1.94,6.05-1.66,3.24-5.04,9.07-7.13,13.11-1.15,2.16-.94,3.6.58,3.6,2.52,0,5.47-2.3,13.61-12.1l.36-.43,1.73,1.44-.36.43c-9.07,10.94-13.9,16.49-20.09,16.49-2.74,0-4.46-1.44-4.46-4.18,0-1.8.65-3.53,1.8-5.76Z"/>
    <path d="M626.25,73.86c2.66,0,4.61,2.45,5.54,4.54.94-1.22,2.02-3.53,2.02-7.2,0-3.17-.43-6.98-.43-10.01,0-1.51.07-2.95.43-4.46-2.3,2.81-4.61,5.47-7.2,8.64l-.36.43-1.73-1.44.36-.43c3.96-4.75,8.28-9.87,12.1-14.76h4.46c.36,0,.5.14.5.36,0,.14-.07.29-.14.43-1.08,1.73-1.94,4.03-1.94,6.91,0,3.1.94,7.13.94,11.67,0,3.1-.58,6.12-2.52,8.71,4.82-3.31,8.57-7.99,12.67-12.89l.36-.43,1.73,1.44-.36.43c-10.8,12.96-17.35,17.5-24.48,17.5-5.47,0-7.56-4.25-5.9-7.27.58-1.22,2.09-2.16,3.96-2.16Z"/>
  </g>
</svg>